<svg xmlns="http://www.w3.org/2000/svg" xmlns:xlink="http://www.w3.org/1999/xlink" viewBox="0 0 264 180"><defs><linearGradient x1="73.822%" y1="-90.066%" x2="26.178%" y2="86.241%" id="e"><stop stop-color="#ECF6F7" offset="0%"/><stop stop-color="#ADD1DA" offset="100%"/></linearGradient><linearGradient x1="-25.589%" y1="18.009%" x2="121.161%" y2="96.595%" id="f"><stop stop-color="#ECF6F7" offset="0%"/><stop stop-color="#ADD1DA" offset="100%"/></linearGradient><linearGradient x1="-59.743%" y1="4.766%" x2="148.58%" y2="96.097%" id="g"><stop stop-color="#ADD1DA" offset="0%"/><stop stop-color="#ECF6F7" offset="100%"/></linearGradient><linearGradient x1="-16.107%" y1="19.615%" x2="106.963%" y2="78.138%" id="h"><stop stop-color="#ECF6F7" offset="0%"/><stop stop-color="#ADD1DA" offset="100%"/></linearGradient><linearGradient x1="11.473%" y1="32.699%" x2="138.979%" y2="89.866%" id="i"><stop stop-color="#ECF6F7" offset="0%"/><stop stop-color="#ADD1DA" offset="100%"/></linearGradient><linearGradient x1="12.491%" y1="13.04%" x2="121.215%" y2="84.538%" id="j"><stop stop-color="#ECF6F7" offset="0%"/><stop stop-color="#ADD1DA" offset="100%"/></linearGradient><linearGradient x1="33.297%" y1="43.127%" x2="176.522%" y2="66.015%" id="k"><stop stop-color="#ECF6F7" offset="0%"/><stop stop-color="#ADD1DA" offset="100%"/></linearGradient><linearGradient x1="-61.753%" y1="39.852%" x2="335.541%" y2="76.145%" id="l"><stop stop-color="#ECF6F7" offset="27%"/><stop stop-color="#E8F4F5" offset="27%"/><stop stop-color="#D2E7EB" offset="33%"/><stop stop-color="#C1DDE3" offset="39%"/><stop stop-color="#B6D6DE" offset="47%"/><stop stop-color="#AFD2DB" offset="58%"/><stop stop-color="#ADD1DA" offset="88%"/></linearGradient><linearGradient x1="40.455%" y1="20.909%" x2="80.709%" y2="143.559%" id="m"><stop stop-color="#ECF6F7" offset="10%"/><stop stop-color="#ADD1DA" offset="88%"/></linearGradient><linearGradient x1="34.033%" y1="-61.807%" x2="62.003%" y2="135.888%" id="n"><stop stop-color="#ECF6F7" offset="26%"/><stop stop-color="#ADD1DA" offset="100%"/></linearGradient><linearGradient x1="-19.55%" y1="48.824%" x2="99.351%" y2="50.835%" id="o"><stop stop-color="#ECF6F7" offset="10%"/><stop stop-color="#D2E7EB" offset="31%"/><stop stop-color="#BEDBE2" offset="54%"/><stop stop-color="#B1D3DC" offset="78%"/><stop stop-color="#ADD1DA" offset="100%"/></linearGradient><linearGradient x1="-11.263%" y1="45.033%" x2="74.128%" y2="51.961%" id="p"><stop stop-color="#ECF6F7" offset="0%"/><stop stop-color="#ADD1DA" offset="88%"/></linearGradient><linearGradient x1="-31.04%" y1="1.217%" x2="95.943%" y2="92.528%" id="q"><stop stop-color="#ECF6F7" offset="0%"/><stop stop-color="#ADD1DA" offset="88%"/></linearGradient><linearGradient x1="50.383%" y1="126.46%" x2="49.8%" y2="29.718%" id="r"><stop stop-color="#ECF6F7" offset="0%"/><stop stop-color="#ADD1DA" offset="88%"/></linearGradient><linearGradient x1="-7.287%" y1="79.912%" x2="113.362%" y2="1.324%" id="s"><stop stop-color="#EAF5F7" offset="0%"/><stop stop-color="#FFF" offset="100%"/></linearGradient><linearGradient x1="0%" y1="27.3%" x2="100%" y2="73.918%" id="t"><stop stop-color="#E3F1F3" offset="0%"/><stop stop-color="#B1D3DC" offset="100%"/></linearGradient><linearGradient x1="50%" y1="0%" x2="50%" y2="100%" id="u"><stop stop-color="#614BF1" stop-opacity=".1" offset="0%"/><stop stop-color="#614BF1" stop-opacity=".3" offset="100%"/></linearGradient><linearGradient x1="50%" y1="100%" x2="50%" y2="0%" id="v"><stop stop-color="#CCEBF7" offset="0%"/><stop stop-color="#E8F7FC" offset="100%"/></linearGradient><linearGradient x1="50%" y1="0%" x2="50%" y2="100%" id="w"><stop stop-color="#614BF1" stop-opacity=".2" offset="0%"/><stop stop-color="#614BF1" stop-opacity=".4" offset="100%"/></linearGradient><linearGradient x1="50%" y1="0%" x2="50%" y2="100%" id="x"><stop stop-color="#53C4C0" stop-opacity=".1" offset="0%"/><stop stop-color="#53C4C0" stop-opacity=".3" offset="100%"/></linearGradient><path d="M170.668 15.766a.543.543 0 01.233.362l5.772 29.299 21.88-.546a.574.574 0 01.584.544l.568 22.85 20.239 2.88c.309.043.527.325.49.636l-12.966 91.312a.563.563 0 01-.604.472l-128.072-18.23a.553.553 0 01-.48-.635l.488-3.45-7.254.181a.554.554 0 01-.573-.533l-.259-10.416-9.31 1.839a.542.542 0 01-.655-.44L42.89 41.407a.564.564 0 01.45-.656l126.906-25.065a.542.542 0 01.422.08zm44.615 60.056l-11.636 81.96a.486.486 0 01-.463.417l-.087-.005-119.188-16.963a.485.485 0 01-.221-.09l-.059-.001.047.054c.091.088.209.146.336.165h.04l118.954 16.928a.603.603 0 00.686-.512l11.605-81.722a.614.614 0 00-.014-.231zM48.345 45.384l15.945 80.952a.624.624 0 00.717.482l5.588-1.104-.002-.093-5.715 1.13a.486.486 0 01-.547-.3l-.025-.084-15.972-81.065a.605.605 0 00.011.082z" id="a"/><path id="c" d="M0 0h178v148H0z"/></defs><g fill="none" fill-rule="evenodd"><mask id="b" fill="#fff"><use xlink:href="#a"/></mask><use fill="#D8ECEF" fill-rule="nonzero" xlink:href="#a"/><g mask="url(#b)"><path fill="#EAF5F7" style="mix-blend-mode:color" d="M0 0h264v180H0z"/><g transform="translate(43 16)"><mask id="d" fill="#fff"><use xlink:href="#c"/></mask><g mask="url(#d)"><path fill="#EAF5F7" d="M-53-6h264v180H-53z"/><g transform="translate(-39 -6)" fill-rule="nonzero"><ellipse fill="#ADD1DA" cx="20.97" cy="61.688" rx="3.04" ry="2.777"/><ellipse fill="#ECF6F7" cx="60.372" cy="10.585" rx="2.62" ry="2.623"/><path d="M221.54 159.53l.975-1.615a.626.626 0 01.86-.213l8.17 4.947c.296.179.391.564.212.86l-.975 1.615a.626.626 0 01-.86.212l-8.17-4.946a.626.626 0 01-.212-.86zM224.254 149.307l10.043-.514a.626.626 0 01.658.593l.095 1.87a.627.627 0 01-.593.658l-10.043.515a.626.626 0 01-.658-.594l-.095-1.87a.627.627 0 01.593-.658zM215.974 164.05l1.612-.946a.626.626 0 01.857.223l4.524 7.723a.626.626 0 01-.223.857l-1.613.947a.626.626 0 01-.857-.224l-4.524-7.722a.626.626 0 01.224-.857zM25.228 0a13.528 13.528 0 0011.615 11.61 13.528 13.528 0 00-11.615 11.63 13.538 13.538 0 00-11.616-11.63A13.538 13.538 0 0025.228 0zM118.643 179.896c30.898 0 55.947-2.467 55.947-5.51 0-3.043-25.049-5.51-55.947-5.51-30.898 0-55.946 2.467-55.946 5.51 0 3.043 25.048 5.51 55.946 5.51z" fill="#C8E3E8"/><path d="M202.864 153.575l-128.072-18.23a.553.553 0 01-.48-.635l12.956-91.313a.563.563 0 01.645-.461l128.03 18.22c.31.042.528.324.492.635l-12.967 91.312a.563.563 0 01-.604.472zM80.053 131.359l118.953 16.928a.603.603 0 00.686-.512l11.605-81.722a.615.615 0 00-.522-.686L91.781 48.438a.603.603 0 00-.686.513L79.5 130.672a.605.605 0 00.512.687h.04z" fill="#D8ECEF"/><path d="M104.007 37.576l82.786-.015c.268 0 .486.218.486.486l-.021 120.389a.487.487 0 01-.487.486l-82.785.015a.486.486 0 01-.487-.486l.022-120.389c0-.268.217-.486.486-.486z" fill="url(#e)" transform="rotate(-81.91 145.39 98.25)"/><path d="M184.31 97.266L57.403 122.331a.542.542 0 01-.655-.44L38.89 31.407a.564.564 0 01.45-.656L166.247 5.687a.542.542 0 01.655.44l17.828 90.484a.564.564 0 01-.42.655zM61.006 116.818l117.878-23.282a.604.604 0 00.481-.707l-15.955-80.953a.604.604 0 00-.706-.47L44.816 34.665a.604.604 0 00-.47.718l15.944 80.952a.624.624 0 00.717.482z" fill="url(#f)"/><path d="M51.65 22.133l120.392-.029c.269 0 .487.218.487.486l-.02 82.784a.487.487 0 01-.487.487l-120.391.029a.486.486 0 01-.487-.486l.02-82.784c0-.269.218-.487.487-.487z" fill="url(#g)" transform="rotate(-11.16 111.837 63.997)"/><path d="M70.827 41.398l120.386-.004c.268 0 .486.218.486.487l-.003 82.787a.486.486 0 01-.486.487l-120.386.004a.486.486 0 01-.486-.487l.002-82.787c0-.27.218-.487.487-.487z" fill="url(#h)" transform="rotate(-1.43 131.018 83.277)"/><path d="M116.926 80.727h27.026c.173 0 .313.14.313.313v19.53c0 .172-.14.313-.313.313h-27.027a.313.313 0 01-.313-.313V81.04c0-.172.14-.313.314-.313z" fill="url(#i)" transform="rotate(-1.43 130.439 90.805)"/><path d="M144.563 80.037l27.027-.001c.173 0 .313.14.313.313v19.53c0 .173-.14.313-.314.313l-27.026.001a.313.313 0 01-.314-.313V80.35c0-.173.141-.313.314-.313z" fill="url(#j)" transform="rotate(-1.43 158.076 90.115)"/><path d="M119.549 97.587h24.562a.39.39 0 01.39.389v5.769h-24.952a.39.39 0 01-.39-.389v-5.37a.39.39 0 01.39-.399z" fill="url(#k)" transform="rotate(-1.43 131.83 100.666)"/><path d="M144.916 96.943h24.563a.39.39 0 01.389.389v5.37a.39.39 0 01-.39.389h-24.95v-5.758a.39.39 0 01.388-.39z" fill="url(#l)" transform="rotate(-1.43 157.197 100.017)"/><path d="M112.475 92.139h6.448a.39.39 0 01.389.389v16.078h-6.837a.39.39 0 01-.39-.39l.001-15.678a.39.39 0 01.39-.389v-.01z" fill="url(#m)" transform="rotate(-1.43 115.699 100.372)"/><path d="M170.153 90.708h6.447a.39.39 0 01.39.39l-.001 15.667a.39.39 0 01-.39.39h-6.836V91.098a.39.39 0 01.39-.39z" fill="url(#n)" transform="rotate(-1.43 173.376 98.931)"/><path fill="url(#o)" transform="rotate(-1.43 144.727 105.625)" d="M119.495 103.371l50.465-.002v4.51h-50.465z"/><path fill="#ADD1DA" d="M123.057 109.553l43.087-1.045-.87-1.117-41.306 1.004z"/><path fill="#ADD1DA" d="M120.314 115.64l-1.545.04 5.086-7.275 3.715-.092zM169.848 114.41l1.546-.041-5.445-7.01-3.715.093z"/><ellipse fill="url(#p)" transform="rotate(-1.43 97.82 113.762)" cx="97.821" cy="113.762" rx="10.859" ry="2.224"/><path d="M89.847 52.988l13.14-.328a.369.369 0 01.38.318l1.453 12.87a.359.359 0 01-.359.38l-15.423.379a.358.358 0 01-.378-.37l.818-12.931a.369.369 0 01.369-.318z" fill="url(#q)"/><path fill="url(#r)" d="M98.577 113.6l-1.3.031-1.249-47.209 1.372-.03z"/><path d="M196.836 128.223l-129.29 3.218a.554.554 0 01-.573-.533l-2.292-92.225a.564.564 0 01.552-.574l129.32-3.228a.574.574 0 01.584.544l2.293 92.224a.564.564 0 01-.594.574zm-124.858-1.578l120.12-2.992a.604.604 0 00.583-.615l-2.047-82.52a.605.605 0 00-.624-.595l-120.1 2.992a.603.603 0 00-.583.625l2.047 82.52a.605.605 0 00.624.585h-.02z" fill="url(#s)"/><ellipse fill="#ADD1DA" cx="4.605" cy="40.989" rx="4.339" ry="3.966"/></g></g><path fill="url(#t)" mask="url(#d)" d="M30 37l121-3 2 84-121 3z"/><path fill="#EAF5F7" mask="url(#d)" d="M-53-6h51v90h-51zM175 140h36v34h-36zM16 156h126v18H16z"/></g><g fill-rule="nonzero"><path d="M23.867 8.906h-3.399V7.793C20.468 3.496 16.91 0 12.538 0c-4.373 0-7.93 3.496-7.93 7.793v1.113H1.132C.507 8.906 0 9.404 0 10.02v26.867C0 37.502.507 38 1.133 38h13.67c.627 0 1.134-.498 1.134-1.113V24.492h7.93c.626 0 1.133-.498 1.133-1.113v-13.36c0-.615-.507-1.113-1.133-1.113zm-16.994 0V7.793c0-3.07 2.54-5.566 5.665-5.566 3.124 0 5.664 2.497 5.664 5.566v1.113H6.873z" fill="url(#u)" transform="translate(85 85)"/><path d="M36.867 22.036h-3.474v-1.13c0-4.36-3.558-7.906-7.93-7.906-4.374 0-7.931 3.547-7.931 7.907v1.13h-3.4A1.12 1.12 0 0013 23.165V36.87c0 .633.498 1.13 1.133 1.13h22.734A1.12 1.12 0 0038 36.87V23.166a1.12 1.12 0 00-1.133-1.13zm-17.07-1.13c0-3.117 2.538-5.647 5.665-5.647 3.127 0 5.665 2.53 5.665 5.648v1.13h-11.33v-1.13z" fill="url(#v)" transform="translate(85 85)"/><g><path d="M25.035 9.041v6.722c0 .929-.76 1.681-1.7 1.681H7.478a1.69 1.69 0 01-1.7-1.68V9.04c0-.928.761-1.68 1.7-1.68h2.832v-1.68c0-.929.76-1.681 1.699-1.681.938 0 1.699.752 1.699 1.68v1.681h9.629c.938 0 1.7.752 1.7 1.68z" fill="url(#w)" transform="translate(127 65)"/><path d="M38.063 17.444a1.69 1.69 0 01-1.7-1.68V9.04c0-.928.761-1.68 1.7-1.68.938 0 1.699.752 1.699 1.68v6.722c0 .929-.761 1.681-1.7 1.681zM58 56.32V22.485c0-.928-.76-1.68-1.7-1.68H1.7c-.94 0-1.7.752-1.7 1.68V56.32C0 57.248.76 58 1.7 58H56.3c.938 0 1.699-.752 1.699-1.68z" fill="url(#x)" transform="translate(127 65)"/><path d="M38.063 10.195a3.965 3.965 0 01-3.965-3.965V1.7c0-.94.76-1.7 1.699-1.7h4.531c.939 0 1.7.76 1.7 1.7v4.53a3.965 3.965 0 01-3.965 3.965zM56.3 13.594H1.699A1.7 1.7 0 000 15.293v6.797h58v-6.797a1.7 1.7 0 00-1.7-1.7zM35.088 31H23.912A3.908 3.908 0 0020 34.905v2.231c0 .925.75 1.674 1.676 1.674h6.148v3.347h-.56c-.925 0-1.676.75-1.676 1.674 0 .924.75 1.673 1.677 1.673h.559V58h3.352V45.504h.56c.925 0 1.676-.75 1.676-1.673 0-.925-.75-1.674-1.677-1.674h-.559V38.81h6.148c.925 0 1.676-.75 1.676-1.674v-2.231A3.908 3.908 0 0035.088 31z" fill="url(#v)" transform="translate(127 65)"/></g></g><path fill="#2B2B2B" style="mix-blend-mode:color" d="M0 0h264v180H0z"/><path fill="#0F495F" style="mix-blend-mode:screen" d="M0 0h264v180H0z"/><path fill="#0F495F" style="mix-blend-mode:overlay" d="M0 0h264v180H0z"/></g></g></svg>