<svg viewBox="0 0 22 18" xmlns="http://www.w3.org/2000/svg"><defs><linearGradient x1="50%" y1="0%" x2="50%" y2="100%" id="a"><stop stop-color="#546DE5" offset="0%"/><stop stop-color="#778BEB" offset="100%"/></linearGradient><linearGradient x1="50%" y1="0%" x2="50%" y2="100%" id="b"><stop stop-color="#546DE5" offset="0%"/><stop stop-color="#778BEB" offset="100%"/></linearGradient></defs><g fill="none" fill-rule="evenodd"><path d="M1 12h2a1 1 0 0 1 1 1v5H0v-5a1 1 0 0 1 1-1z" fill="url(#a)"/><path d="M7 8h2a1 1 0 0 1 1 1v9H6V9a1 1 0 0 1 1-1z" fill="url(#b)"/><path d="M13 4h2a1 1 0 0 1 1 1v13h-4V5a1 1 0 0 1 1-1zM19 0h2a1 1 0 0 1 1 1v17h-4V1a1 1 0 0 1 1-1z" fill="#BBC5F5"/></g></svg>