<svg width="17" height="32" viewBox="0 0 17 32" fill="none" xmlns="http://www.w3.org/2000/svg">
<path fill-rule="evenodd" clip-rule="evenodd" d="M14.5414 14.5119C14.3482 14.7321 13.8605 15.038 13.401 14.6348C12.5382 13.8745 11.6192 13.1474 10.6746 12.4729L8.83009 11.1622L10.073 19.4284C10.1933 20.2271 9.96161 20.9106 9.45728 21.2588L8.94529 21.6095L9.05537 22.2188C9.49825 24.6687 10.1971 26.8844 11.1379 28.8044C11.2634 29.063 11.2518 29.2985 11.0995 29.5238C10.928 29.7798 10.6131 29.9436 10.3469 29.9398C10.2381 29.9321 10.096 29.8898 9.96929 29.6313C8.79425 27.2274 7.96609 24.4985 7.50913 21.5212L7.46305 21.2191L7.25184 20.999C7.09441 20.8351 6.99969 20.6572 6.97153 20.4665L5.66976 11.8034L4.29248 13.991C3.93024 14.567 3.58208 15.1545 3.24544 15.7497C2.96512 16.2463 2.51072 16.0607 2.32768 15.957C2.18048 15.8726 1.72224 15.559 2.02304 15.0278C3.15968 13.022 4.3232 11.3414 5.58016 9.89367L5.71457 9.69271C5.90785 9.30616 6.22272 9.05912 6.67585 8.9388C6.84225 8.894 7.03936 8.88503 7.32865 8.91447C7.41313 8.91576 7.49633 8.93495 7.64609 8.99255C7.84449 9.05527 8.0352 9.15255 8.1952 9.27287L8.31425 9.34968C10.4019 10.4774 12.4269 11.9122 14.5056 13.7388H14.5069C14.617 13.8361 14.9088 14.0921 14.5414 14.5119ZM4.06721 28.487C4.00065 28.5996 3.84833 28.6444 3.76513 28.6623C3.53473 28.7097 3.26977 28.6623 3.11489 28.551C2.66433 28.222 2.89857 27.71 3.02145 27.5052V27.5039C3.56673 26.5862 4.84673 25.2204 5.98209 24.1081C6.13569 24.8441 6.30209 25.4201 6.43649 25.8297C5.79009 26.366 4.75713 27.3247 4.06721 28.487ZM7.10209 2.41976C8.1824 2.41976 9.06176 3.28248 9.06176 4.34104C9.06176 5.40088 8.1824 6.26232 7.10209 6.26232C6.02177 6.26232 5.14369 5.40088 5.14369 4.34104C5.14369 3.28248 6.02177 2.41976 7.10209 2.41976ZM15.7715 12.2962C13.6032 10.389 11.4784 8.88376 9.28449 7.6908C9.23457 7.65624 9.18209 7.63064 9.13217 7.59864C10.2381 6.92024 10.9818 5.7196 10.9818 4.34104C10.9818 2.22264 9.24097 0.499756 7.10209 0.499756C4.96321 0.499756 3.22369 2.22264 3.22369 4.34104C3.22369 5.72088 3.96865 6.9228 5.07585 7.6012C4.65729 7.8892 4.30785 8.25912 4.05697 8.7212C2.74241 10.247 1.53025 12.0018 0.352645 14.0818C-0.472955 15.5385 0.266885 16.9951 1.38177 17.6287C2.48513 18.2521 3.74721 18.0588 4.54081 17.2076L5.07329 20.7519C5.13345 21.1551 5.30241 21.534 5.53409 21.8822C4.49857 22.8473 2.27521 24.9977 1.37025 26.5247C0.606085 27.8098 0.858245 29.2806 1.98465 30.1023C2.43137 30.4274 2.99969 30.6002 3.57825 30.6002C3.76897 30.6002 3.96225 30.5823 4.15169 30.5426C4.83265 30.4031 5.38945 30.0204 5.71841 29.4674C6.11137 28.8044 6.65281 28.231 7.13025 27.7855C7.46433 28.7135 7.82657 29.6185 8.24513 30.4735C8.64449 31.2914 9.36257 31.7958 10.2138 31.8546C10.2701 31.8585 10.3264 31.861 10.3827 31.861C11.2736 31.861 12.167 31.3772 12.6918 30.5951C13.2294 29.7977 13.2909 28.8377 12.8621 27.9622C12.0685 26.3391 11.4592 24.4754 11.0483 22.4159C11.8227 21.6121 12.1658 20.4345 11.9712 19.1442L11.4195 15.4668C11.6614 15.6678 11.9008 15.8713 12.135 16.0786C13.4035 17.1897 15.0906 16.798 15.9853 15.7766C16.9312 14.6975 16.8416 13.2332 15.7715 12.2962Z" fill="#929292"/>
</svg>
