<?xml version="1.0" encoding="UTF-8"?>
<svg viewBox="0 0 24 24" version="1.1" xmlns="http://www.w3.org/2000/svg" xmlns:xlink="http://www.w3.org/1999/xlink">
    <defs>
        <polygon id="path-1" points="0 9.6e-05 23.52 9.6e-05 23.52 11.808768 0 11.808768"></polygon>
    </defs>
    <g id="Symbols" stroke="none" stroke-width="1" fill="none" fill-rule="evenodd">
        <g id="3_img/ico/24/trafic-voiture-dense">
            <g id="Group-3" transform="translate(0.000000, 6.000000)">
                <mask id="mask-2" fill="white">
                    <use xlink:href="#path-1"></use>
                </mask>
                <g id="Clip-2"></g>
               <path d="M22.08,7.815456 C22.08,8.164896 21.79584,8.449056 21.4464,8.449056 L20.52768,8.449056 C20.21184,7.344096 19.2048,6.529056 18,6.529056 C16.7952,6.529056 15.78816,7.344096 15.47232,8.449056 L8.04768,8.449056 C7.73184,7.344096 6.7248,6.529056 5.52,6.529056 C4.3152,6.529056 3.30816,7.344096 2.99232,8.449056 L2.0736,8.449056 C1.7568,8.449056 1.49376,8.214816 1.44672,7.910496 L2.1168,5.902176 C2.18688,5.690976 2.3664,5.532576 2.58624,5.488416 L4.73088,5.059296 L21.92544,5.059296 C22.01664,5.290656 22.08,5.531616 22.08,5.783136 L22.08,7.815456 Z M18,10.369056 C17.33856,10.369056 16.8,9.830496 16.8,9.169056 C16.8,8.506656 17.33856,7.969056 18,7.969056 C18.66144,7.969056 19.2,8.506656 19.2,9.169056 C19.2,9.830496 18.66144,10.369056 18,10.369056 L18,10.369056 Z M5.52,10.369056 C4.85856,10.369056 4.32,9.830496 4.32,9.169056 C4.32,8.506656 4.85856,7.969056 5.52,7.969056 C6.18144,7.969056 6.72,8.506656 6.72,9.169056 C6.72,9.830496 6.18144,10.369056 5.52,10.369056 L5.52,10.369056 Z M10.78464,1.569696 C10.89312,1.486176 11.02848,1.440096 11.16672,1.440096 L19.35072,1.440096 C19.5696,1.440096 19.76928,1.550496 19.8864,1.734816 L21.0768,3.619296 L8.1216,3.619296 L10.78464,1.569696 Z M22.99104,3.955296 L21.10272,0.964896 C20.72064,0.360096 20.06496,9.6e-05 19.35072,9.6e-05 L11.16672,9.6e-05 C10.71264,9.6e-05 10.26432,0.152736 9.90528,0.429216 L6.28992,3.213216 C6.21408,3.271776 6.12384,3.313056 6.02976,3.331296 L2.304,4.076256 C1.5792,4.221216 0.984,4.746336 0.75072,5.447136 L0.03744,7.587936 L0,7.815456 C0,8.958816 0.93024,9.889056 2.0736,9.889056 L2.99232,9.889056 C3.30816,10.993056 4.3152,11.809056 5.52,11.809056 C6.7248,11.809056 7.73184,10.993056 8.04768,9.889056 L15.47232,9.889056 C15.78816,10.993056 16.7952,11.809056 18,11.809056 C19.2048,11.809056 20.21184,10.993056 20.52768,9.889056 L21.4464,9.889056 C22.58976,9.889056 23.52,8.958816 23.52,7.815456 L23.52,5.783136 C23.52,5.134176 23.3376,4.502496 22.99104,3.955296 L22.99104,3.955296 Z" id="Fill-1" fill="#574b90" mask="url(#mask-2)"></path>
            </g>
        </g>
    </g>
</svg>
