<?xml version="1.0" encoding="UTF-8"?>
<svg viewBox="0 0 24 24" version="1.1" xmlns="http://www.w3.org/2000/svg" xmlns:xlink="http://www.w3.org/1999/xlink">
    <defs>
        <polygon id="path-1" points="7.61794272e-05 0.00048 12.4790075 0.00048 12.4790075 23.52048 7.61794272e-05 23.52048"></polygon>
    </defs>
    <g id="Symbols" stroke="none" stroke-width="1" fill="none" fill-rule="evenodd">
        <g id="3_img/ico/24/trafic-pieton-courante">
            <g id="Group-3" transform="translate(6.000000, 0.000000)">
                <mask id="mask-2" fill="white">
                    <use xlink:href="#path-1"></use>
                </mask>
                <g id="Clip-2"></g>
                <path d="M10.90608,10.508928 C10.76112,10.674048 10.39536,10.903488 10.05072,10.601088 C9.40368,10.030848 8.7144,9.485568 8.00592,8.979648 L6.62256,7.996608 L7.55472,14.196288 C7.64496,14.795328 7.4712,15.307968 7.09296,15.569088 L6.70896,15.832128 L6.79152,16.289088 C7.12368,18.126528 7.64784,19.788288 8.35344,21.228288 C8.44752,21.422208 8.43888,21.598848 8.32464,21.767808 C8.196,21.959808 7.95984,22.082688 7.76016,22.0798576 C7.67856,22.074048 7.572,22.042368 7.47696,21.848448 C6.59568,20.045568 5.97456,17.998848 5.63184,15.765888 L5.59728,15.539328 L5.43888,15.374208 C5.3208,15.251328 5.24976,15.117888 5.22864,14.974848 L4.25232,8.477568 L3.21936,10.118208 C2.94768,10.550208 2.68656,10.990848 2.43408,11.437248 C2.22384,11.809728 1.88304,11.670528 1.74576,11.592768 C1.63536,11.529408 1.29168,11.294208 1.51728,10.895808 C2.36976,9.391488 3.2424,8.131008 4.18512,7.045248 L4.28592,6.894528 C4.43088,6.604608 4.66704,6.419328 5.00688,6.329088 C5.13168,6.295488 5.27952,6.288768 5.49648,6.310848 C5.55984,6.311808 5.62224,6.326208 5.73456,6.369408 C5.88336,6.416448 6.0264,6.489408 6.1464,6.579648 L6.23568,6.637248 C7.80144,7.483008 9.32016,8.559168 10.8792,9.929088 L10.88016,9.929088 C10.96272,10.002048 11.1816,10.194048 10.90608,10.508928 M3.0504,20.990208 C3.00048,21.074688 2.88624,21.108288 2.82384,21.121728 C2.65104,21.157248 2.45232,21.121728 2.33616,21.038208 C1.99824,20.791488 2.17392,20.407488 2.26608,20.253888 L2.26608,20.252928 C2.67504,19.564608 3.63504,18.540288 4.48656,17.706048 C4.60176,18.258048 4.72656,18.690048 4.82736,18.997248 C4.34256,19.399488 3.56784,20.118528 3.0504,20.990208 M5.32656,1.439808 C6.1368,1.439808 6.79632,2.086848 6.79632,2.880768 C6.79632,3.675648 6.1368,4.321728 5.32656,4.321728 C4.51632,4.321728 3.85776,3.675648 3.85776,2.880768 C3.85776,2.086848 4.51632,1.439808 5.32656,1.439808 M11.82864,8.847168 C10.2024,7.416768 8.6088,6.287808 6.96336,5.393088 C6.92592,5.367168 6.88656,5.347968 6.84912,5.323968 C7.67856,4.815168 8.23632,3.914688 8.23632,2.880768 C8.23632,1.291968 6.93072,-0.000192 5.32656,-0.000192 C3.7224,-0.000192 2.41776,1.291968 2.41776,2.880768 C2.41776,3.915648 2.97648,4.817088 3.80688,5.325888 C3.49296,5.541888 3.23088,5.819328 3.04272,6.165888 C2.0568,7.310208 1.14768,8.626368 0.26448,10.186368 C-0.35472,11.278848 0.20016,12.371328 1.03632,12.846528 C1.86384,13.314048 2.8104,13.169088 3.4056,12.530688 L3.80496,15.188928 C3.85008,15.491328 3.9768,15.775488 4.15056,16.036608 C3.37392,16.760448 1.7064,18.373248 1.02768,19.518528 C0.45456,20.482368 0.64368,21.585408 1.48848,22.201728 C1.82352,22.445568 2.24976,22.575168 2.68368,22.575168 C2.82672,22.575168 2.97168,22.561728 3.11376,22.531968 C3.62448,22.427328 4.04208,22.140288 4.2888,21.725568 C4.58352,21.228288 4.9896,20.798208 5.34768,20.464128 C5.59824,21.160128 5.86992,21.838848 6.18384,22.480128 C6.48336,23.093568 7.02192,23.471808 7.66032,23.515968 C7.70256,23.518848 7.7448,23.520768 7.78704,23.520768 C8.4552,23.520768 9.12528,23.157888 9.51888,22.571328 C9.92208,21.973248 9.96816,21.253248 9.64656,20.596608 C9.05136,19.379328 8.5944,17.981568 8.28624,16.436928 C8.86704,15.834048 9.12432,14.950848 8.9784,13.983168 L8.56464,11.225088 C8.74608,11.375808 8.9256,11.528448 9.10128,11.683968 C10.05264,12.517248 11.31792,12.223488 11.98896,11.457408 C12.6984,10.648128 12.6312,9.549888 11.82864,8.847168" id="Fill-1" fill="#546de5" mask="url(#mask-2)"></path>
            </g>
        </g>
    </g>
</svg>
