<svg width="32" height="17" viewBox="0 0 32 17" fill="none" xmlns="http://www.w3.org/2000/svg">
<path fill-rule="evenodd" clip-rule="evenodd" d="M29.44 10.9206C29.44 11.3865 29.0611 11.7654 28.5952 11.7654H27.3702C26.9491 10.2921 25.6064 9.2054 24 9.2054C22.3936 9.2054 21.0509 10.2921 20.6298 11.7654H10.7302C10.3091 10.2921 8.9664 9.2054 7.36 9.2054C5.7536 9.2054 4.41088 10.2921 3.98976 11.7654H2.7648C2.3424 11.7654 1.99168 11.4531 1.92896 11.0473L2.8224 8.36956C2.91584 8.08796 3.1552 7.87676 3.44832 7.81788L6.30784 7.24572H29.2339C29.3555 7.5542 29.44 7.87548 29.44 8.21084V10.9206ZM24 14.3254C23.1181 14.3254 22.4 13.6073 22.4 12.7254C22.4 11.8422 23.1181 11.1254 24 11.1254C24.8819 11.1254 25.6 11.8422 25.6 12.7254C25.6 13.6073 24.8819 14.3254 24 14.3254ZM7.36 14.3254C6.47808 14.3254 5.76 13.6073 5.76 12.7254C5.76 11.8422 6.47808 11.1254 7.36 11.1254C8.24192 11.1254 8.96 11.8422 8.96 12.7254C8.96 13.6073 8.24192 14.3254 7.36 14.3254ZM14.3795 2.59292C14.5242 2.48156 14.7046 2.42012 14.889 2.42012H25.801C26.0928 2.42012 26.359 2.56732 26.5152 2.81308L28.1024 5.32572H10.8288L14.3795 2.59292ZM30.6547 5.77372L28.137 1.78652C27.6275 0.980122 26.7533 0.500122 25.801 0.500122H14.889C14.2835 0.500122 13.6858 0.703642 13.207 1.07228L8.38656 4.78428C8.28544 4.86236 8.16512 4.9174 8.03968 4.94172L3.072 5.935C2.1056 6.12828 1.312 6.82844 1.00096 7.76284L0.04992 10.6172L0 10.9206C0 12.4451 1.24032 13.6854 2.7648 13.6854H3.98976C4.41088 15.1574 5.7536 16.2454 7.36 16.2454C8.9664 16.2454 10.3091 15.1574 10.7302 13.6854H20.6298C21.0509 15.1574 22.3936 16.2454 24 16.2454C25.6064 16.2454 26.9491 15.1574 27.3702 13.6854H28.5952C30.1197 13.6854 31.36 12.4451 31.36 10.9206V8.21084C31.36 7.34556 31.1168 6.50332 30.6547 5.77372Z" fill="#929292"/>
</svg>
