<?xml version="1.0" encoding="UTF-8"?>
<svg viewBox="0 0 20 20" version="1.1" xmlns="http://www.w3.org/2000/svg" xmlns:xlink="http://www.w3.org/1999/xlink">
    <defs>
        <path d="M7.38435592,13.4704298 L2.24487266,18.7786498 C2.10302414,18.9190153 1.91452077,18.9981976 1.7179207,19 C1.42416766,18.990302 1.16368312,18.8026656 1.05380179,18.5216113 C0.94392047,18.240557 1.00537585,17.9191168 1.21048549,17.7020828 L6.40833996,12.3428313 C6.10233656,11.9034516 5.84170944,11.4239162 5.63483112,10.9099799 C4.556917,8.23217795 5.15073445,5.14850533 7.13909187,3.09840801 C9.12744929,1.04831069 12.1182553,0.436054789 14.7154137,1.5474389 C17.312572,2.65882301 19.0039397,5.27468926 18.9999931,8.17396184 C18.9946182,12.1225085 15.8914263,15.3220568 12.0617924,15.3275986 C10.296707,15.3301528 8.63992513,14.6439855 7.38435592,13.4704298 Z M8.03575965,12.0243794 C8.07978004,12.0731727 8.12475024,12.121296 8.17066478,12.1687206 C9.73836557,13.7879808 12.097983,14.2736021 14.1484878,13.398987 C16.1989925,12.5243719 17.5362342,10.4619052 17.5362377,8.17396184 C17.5362425,5.05499711 15.0868229,2.52501955 12.0617924,2.51946979 C9.84275531,2.51539872 7.84002268,3.89048733 6.98809662,6.0031007 C6.20123655,7.95436289 6.53935345,10.179578 7.83082695,11.7839596 C7.91471945,11.8478583 7.98476126,11.9297829 8.03575965,12.0243794 Z" id="path-1"></path>
    </defs>
    <g id="Page-1" stroke="none" stroke-width="1" fill="none" fill-rule="evenodd">
        <g id="svg-loupe">
            <mask id="mask-2" fill="white">
                <use xlink:href="#path-1"></use>
            </mask>
            <use id="Shape" fill="#ffffff" fill-rule="nonzero" xlink:href="#path-1"></use>
            <g id="1_bg/0/fills/ardoise_4C4C4C" mask="url(#mask-2)" fill="#ffffff">
                <g transform="translate(-23.000000, -23.000000)" id="Rectangle">
                    <rect x="0" y="0" width="66" height="66"></rect>
                </g>
            </g>
        </g>
    </g>
</svg>
